<?xml version="1.0" encoding="utf-8"?>
<!-- Generator: Adobe Illustrator 16.0.0, SVG Export Plug-In . SVG Version: 6.00 Build 0)  -->
<!DOCTYPE svg PUBLIC "-//W3C//DTD SVG 1.1//EN" "http://www.w3.org/Graphics/SVG/1.1/DTD/svg11.dtd">
<svg version="1.1" id="Layer_1" xmlns="http://www.w3.org/2000/svg" xmlns:xlink="http://www.w3.org/1999/xlink" x="0px" y="0px"
	 width="343.474px" height="43.916px" viewBox="0 0 343.474 43.916" enable-background="new 0 0 343.474 43.916"
	 xml:space="preserve">
<g>
	<path fill="#0097B0" d="M133.781,28.084c-2.53,3.074-5.122,5.123-9.522,5.123c-5.906,0-10.064-4.941-10.064-11.27v-0.121
		c0-6.147,4.158-11.209,10.064-11.209c4.038,0,6.812,1.988,9.222,4.941l8.799-6.81C138.543,3.616,132.999,0,124.38,0
		c-6.992,0-12.959,2.9-16.941,7.53C103.376,3.35,97.16,0.844,89.124,0.844H72.792v4.265c-4.424-3.26-9.771-4.987-16.518-4.987
		c-7.78,0-13.232,3.353-15.348,8.456c-4.049-5.199-10.516-8.534-18.146-8.534C9.763,0.043,0,9.865,0,21.979V22.1
		c0,12.113,9.643,21.816,22.66,21.816c6.493,0,12.175-2.444,16.241-6.397c5.133,4.121,11.778,6.235,18.819,6.235
		c6.971,0,12.344-2.376,15.072-6.606v5.883h16.091c8.021,0,14.258-2.559,18.368-6.762c3.984,4.729,9.979,7.605,16.707,7.605
		c9.281,0,14.645-4.038,18.623-9.522L133.781,28.084z M63.024,31.158c0,1.808-1.687,2.893-4.881,2.893
		c-4.882,0-9.462-1.748-13.681-5.062l-0.292,0.349c0.677-1.892,1.097-3.903,1.225-5.995c2.771,1.64,6.401,2.67,10.458,3.597
		c5.785,1.386,7.171,2.29,7.171,4.098V31.158z M59.106,16.754c-5.905-1.325-7.352-2.17-7.352-4.097v-0.12
		c0-1.568,1.386-2.713,4.219-2.713c3.736,0,7.955,1.385,11.812,4.158l5.006-7.072V23.39C70.278,20.008,65.492,18.151,59.106,16.754z
		 M100.936,21.998c0,6.81-4.64,10.667-11.691,10.667h-4.761V11.15h4.761c7.051,0,11.691,3.977,11.691,10.727V21.998z M40.82,26.303
		c0,2.81-2.277,5.086-5.085,5.086h-6.747c-1.692,1.243-3.799,1.98-6.207,1.98c-2.406,0-4.525-0.739-6.238-1.98H9.55
		c-2.808,0-5.085-2.276-5.085-5.086c0-2.323,1.561-4.28,3.689-4.887c0.033-2.77,2.278-5.005,5.052-5.022
		c1.722-3.425,5.088-5.806,9.455-5.806c4.34,0,7.717,2.38,9.466,5.808c0.025-0.001,0.048-0.005,0.073-0.005
		c2.803,0,5.076,2.269,5.084,5.069C39.334,22.116,40.82,24.036,40.82,26.303z"/>
	<g>
		<path fill="#FFFFFF" d="M153.8,26.477c-2.689,0-4.803-1.745-4.803-4.672c0-2.926,2.113-4.685,4.803-4.685s4.803,1.759,4.803,4.685
			C158.603,24.731,156.489,26.477,153.8,26.477z M153.8,18.932c-1.51,0-2.65,1.089-2.65,2.821c0,1.731,1.141,2.834,2.65,2.834
			s2.65-1.103,2.65-2.834C156.45,20.033,155.31,18.932,153.8,18.932z"/>
		<path fill="#FFFFFF" d="M166.712,22.291c-0.604,0.498-1.432,0.682-2.363,0.682h-1.115v3.347h-2.125v-9.055h3.24
			c0.932,0,1.76,0.184,2.363,0.684c0.604,0.497,0.945,1.193,0.945,2.164S167.315,21.78,166.712,22.291z M165.071,19.155
			c-0.262-0.185-0.564-0.25-1.023-0.25h-0.826v2.428h0.826c0.459,0,0.762-0.065,1.023-0.25c0.25-0.184,0.434-0.512,0.434-0.971
			S165.321,19.338,165.071,19.155z"/>
		<path fill="#FFFFFF" d="M175.989,26.319h-5.984v-9.055h5.865v1.693h-3.752v1.85h3.543v1.693h-3.543v2.1h3.871V26.319z"/>
		<path fill="#FFFFFF" d="M186.802,26.319h-2.18l-3.977-6.142c0,0,0.041,1.09,0.041,2.047v4.095h-2.074v-9.055h2.27l3.885,6.089
			c0,0-0.039-1.023-0.039-1.981v-4.107h2.074V26.319z"/>
		<path fill="#FFFFFF" d="M198.714,25.729c-0.643,0.513-1.482,0.748-2.453,0.748c-1.312,0-2.48-0.682-3.215-1.364l1.049-1.549
			c0.656,0.683,1.668,1.142,2.363,1.142c0.682,0,1.207-0.328,1.207-0.932c0-0.616-0.67-0.853-1.062-0.997
			c-0.395-0.145-1.076-0.381-1.379-0.512c-0.223-0.105-0.682-0.275-1.076-0.656c-0.393-0.367-0.709-0.893-0.709-1.744
			c0-0.867,0.42-1.55,0.945-1.982c0.512-0.434,1.338-0.722,2.389-0.722c1.049,0,2.256,0.498,2.873,1.115l-0.904,1.482
			c-0.525-0.524-1.34-0.918-2.021-0.918s-1.182,0.262-1.182,0.813c0,0.551,0.512,0.761,0.92,0.918
			c0.393,0.158,1.062,0.394,1.352,0.512c0.248,0.093,0.852,0.328,1.26,0.735c0.379,0.381,0.707,0.932,0.707,1.745
			C199.776,24.43,199.37,25.217,198.714,25.729z"/>
		<path fill="#FFFFFF" d="M209.776,25.243c-0.459,0.473-1.418,1.233-3.268,1.233c-2.664,0-4.75-1.758-4.75-4.672
			c0-2.926,2.113-4.671,4.75-4.671c1.863,0,2.873,0.774,3.109,1.023l-0.656,1.759c-0.17-0.224-1.141-0.945-2.334-0.945
			c-1.537,0-2.717,1.023-2.717,2.795s1.232,2.782,2.717,2.782c1.127,0,1.941-0.446,2.439-0.958L209.776,25.243z"/>
		<path fill="#FFFFFF" d="M214.185,26.319h-2.125v-9.055h2.125V26.319z"/>
		<path fill="#FFFFFF" d="M223.134,26.319h-5.982v-9.055h5.865v1.693h-3.754v1.85h3.543v1.693h-3.543v2.1h3.871V26.319z"/>
		<path fill="#FFFFFF" d="M233.948,26.319h-2.18l-3.977-6.142c0,0,0.041,1.09,0.041,2.047v4.095h-2.074v-9.055h2.27l3.885,6.089
			c0,0-0.039-1.023-0.039-1.981v-4.107h2.074V26.319z"/>
		<path fill="#FFFFFF" d="M244.208,25.243c-0.459,0.473-1.418,1.233-3.268,1.233c-2.664,0-4.75-1.758-4.75-4.672
			c0-2.926,2.113-4.671,4.75-4.671c1.863,0,2.873,0.774,3.109,1.023l-0.656,1.759c-0.17-0.224-1.141-0.945-2.334-0.945
			c-1.537,0-2.717,1.023-2.717,2.795s1.232,2.782,2.717,2.782c1.127,0,1.941-0.446,2.439-0.958L244.208,25.243z"/>
		<path fill="#FFFFFF" d="M252.476,26.319h-5.984v-9.055h5.865v1.693h-3.752v1.85h3.543v1.693h-3.543v2.1h3.871V26.319z"/>
		<path fill="#FFFFFF" d="M265.308,25.139c-0.656,0.604-1.811,1.181-3.385,1.181h-2.73v-9.055h2.73c1.574,0,2.729,0.577,3.385,1.181
			c0.656,0.604,1.404,1.654,1.404,3.347S265.964,24.535,265.308,25.139z M264.337,19.193c-0.498-0.472-1.312-0.84-2.414-0.84h-1.457
			v6.863h1.457c1.102,0,1.916-0.367,2.414-0.84c0.498-0.472,1.076-1.272,1.076-2.585S264.835,19.666,264.337,19.193z"/>
		<path fill="#FFFFFF" d="M276.501,26.319h-1.418l-0.932-2.362h-3.885l-0.932,2.362h-1.338l3.688-9.08h1.115L276.501,26.319z
			 M273.798,22.895l-1.588-4.068l-1.588,4.068H273.798z"/>
		<path fill="#FFFFFF" d="M283.114,18.328h-2.545v7.991h-1.273v-7.991h-2.559v-1.063h6.377V18.328z"/>
		<path fill="#FFFFFF" d="M291.866,26.319h-1.416l-0.932-2.362h-3.885l-0.932,2.362h-1.34l3.688-9.08h1.117L291.866,26.319z
			 M289.163,22.895l-1.588-4.068l-1.588,4.068H289.163z"/>
		<path fill="#FFFFFF" d="M305.54,25.139c-0.564,0.63-1.588,1.338-3.307,1.338c-2.639,0-4.633-1.85-4.633-4.672
			c0-2.821,2.033-4.671,4.633-4.671c1.691,0,2.715,0.708,3.215,1.194l-0.539,1.023c-0.354-0.446-1.365-1.103-2.625-1.103
			c-1.955,0-3.371,1.404-3.371,3.531c0,2.125,1.43,3.528,3.371,3.528c1.195,0,2.113-0.459,2.703-1.102L305.54,25.139z"/>
		<path fill="#FFFFFF" d="M312.612,26.319h-4.463v-9.055h1.273v7.966h3.189V26.319z"/>
		<path fill="#FFFFFF" d="M318.425,26.477c-2.545,0-4.672-1.771-4.672-4.672c0-2.899,2.127-4.671,4.672-4.671
			c2.547,0,4.672,1.771,4.672,4.671C323.097,24.705,320.972,26.477,318.425,26.477z M318.425,18.236
			c-1.85,0-3.373,1.325-3.373,3.544c0,2.203,1.537,3.543,3.373,3.543c1.852,0,3.373-1.34,3.373-3.543
			C321.798,19.562,320.276,18.236,318.425,18.236z"/>
		<path fill="#FFFFFF" d="M332.714,22.619c0,1.128-0.105,2.021-0.721,2.756c-0.617,0.708-1.523,1.102-2.717,1.102
			c-1.207,0-2.113-0.394-2.717-1.102c-0.629-0.735-0.734-1.628-0.734-2.756v-5.354h1.285v5.236c0,0.761,0.014,1.496,0.42,2.034
			c0.367,0.498,0.959,0.8,1.746,0.8s1.365-0.302,1.744-0.8c0.408-0.538,0.42-1.286,0.42-2.034v-5.236h1.273V22.619z"/>
		<path fill="#FFFFFF" d="M342.069,25.139c-0.656,0.604-1.811,1.181-3.385,1.181h-2.73v-9.055h2.73c1.574,0,2.729,0.577,3.385,1.181
			c0.656,0.604,1.404,1.654,1.404,3.347S342.726,24.535,342.069,25.139z M341.099,19.193c-0.498-0.472-1.312-0.84-2.414-0.84h-1.457
			v6.863h1.457c1.102,0,1.916-0.367,2.414-0.84c0.498-0.472,1.076-1.272,1.076-2.585S341.597,19.666,341.099,19.193z"/>
	</g>
</g>
</svg>
