<?xml version="1.0" encoding="utf-8"?>
<!-- Generator: Adobe Illustrator 16.0.0, SVG Export Plug-In . SVG Version: 6.00 Build 0)  -->
<!DOCTYPE svg PUBLIC "-//W3C//DTD SVG 1.1//EN" "http://www.w3.org/Graphics/SVG/1.1/DTD/svg11.dtd">
<svg version="1.1" id="Layer_1" xmlns="http://www.w3.org/2000/svg" xmlns:xlink="http://www.w3.org/1999/xlink" x="0px" y="0px"
	 width="197.012px" height="62.38px" viewBox="0 0 197.012 62.38" enable-background="new 0 0 197.012 62.38" xml:space="preserve">
<g>
	<path fill="#0097B0" d="M133.781,28.084c-2.53,3.074-5.122,5.123-9.522,5.123c-5.906,0-10.064-4.941-10.064-11.27v-0.121
		c0-6.147,4.158-11.209,10.064-11.209c4.038,0,6.812,1.988,9.222,4.941l8.799-6.81C138.543,3.616,132.999,0,124.38,0
		c-6.992,0-12.959,2.9-16.941,7.53C103.376,3.35,97.16,0.844,89.124,0.844H72.792v4.265c-4.425-3.26-9.771-4.987-16.518-4.987
		c-7.78,0-13.232,3.353-15.348,8.456c-4.05-5.199-10.516-8.534-18.146-8.534C9.763,0.043,0,9.865,0,21.979V22.1
		c0,12.113,9.643,21.816,22.66,21.816c6.493,0,12.175-2.444,16.241-6.397c5.133,4.121,11.777,6.235,18.818,6.235
		c6.971,0,12.344-2.376,15.072-6.606v5.883h16.091c8.021,0,14.258-2.559,18.368-6.762c3.984,4.729,9.979,7.605,16.707,7.605
		c9.281,0,14.645-4.038,18.623-9.522L133.781,28.084z M63.024,31.158c0,1.808-1.688,2.893-4.882,2.893
		c-4.882,0-9.462-1.748-13.681-5.062l-0.292,0.349c0.677-1.892,1.097-3.903,1.225-5.995c2.771,1.64,6.401,2.67,10.458,3.597
		c5.785,1.386,7.172,2.29,7.172,4.098V31.158z M59.106,16.754c-5.906-1.325-7.353-2.17-7.353-4.097v-0.12
		c0-1.568,1.386-2.713,4.22-2.713c3.736,0,7.955,1.385,11.812,4.158l5.006-7.072V23.39C70.278,20.008,65.492,18.151,59.106,16.754z
		 M100.936,21.998c0,6.81-4.64,10.667-11.69,10.667h-4.762V11.15h4.762c7.051,0,11.69,3.977,11.69,10.727V21.998z M40.819,26.303
		c0,2.81-2.277,5.086-5.085,5.086h-6.747c-1.691,1.243-3.799,1.98-6.207,1.98c-2.405,0-4.524-0.739-6.238-1.98H9.55
		c-2.809,0-5.086-2.276-5.086-5.086c0-2.323,1.561-4.28,3.689-4.887c0.033-2.77,2.278-5.005,5.053-5.022
		c1.721-3.425,5.088-5.806,9.454-5.806c4.34,0,7.717,2.38,9.466,5.808c0.025-0.001,0.049-0.005,0.074-0.005
		c2.803,0,5.075,2.269,5.084,5.069C39.334,22.116,40.819,24.036,40.819,26.303z"/>
	<g>
		<path fill="#FFFFFF" d="M7.338,62.38c-2.69,0-4.803-1.745-4.803-4.672c0-2.926,2.112-4.685,4.803-4.685
			c2.689,0,4.803,1.759,4.803,4.685C12.141,60.635,10.027,62.38,7.338,62.38z M7.338,54.835c-1.51,0-2.65,1.089-2.65,2.822
			c0,1.73,1.141,2.834,2.65,2.834c1.509,0,2.65-1.104,2.65-2.834C9.988,55.937,8.847,54.835,7.338,54.835z"/>
		<path fill="#FFFFFF" d="M20.25,58.194c-0.604,0.498-1.432,0.682-2.363,0.682h-1.115v3.347h-2.125v-9.055h3.24
			c0.932,0,1.759,0.184,2.363,0.683c0.604,0.498,0.944,1.194,0.944,2.165S20.854,57.683,20.25,58.194z M18.609,55.058
			c-0.263-0.184-0.564-0.249-1.023-0.249h-0.827v2.428h0.827c0.459,0,0.761-0.065,1.023-0.25c0.249-0.184,0.433-0.512,0.433-0.971
			S18.858,55.241,18.609,55.058z"/>
		<path fill="#FFFFFF" d="M29.526,62.223h-5.983v-9.055h5.865v1.693h-3.753v1.85h3.543v1.694h-3.543v2.099h3.871V62.223z"/>
		<path fill="#FFFFFF" d="M40.339,62.223H38.16l-3.977-6.142c0,0,0.04,1.09,0.04,2.047v4.095H32.15v-9.055h2.27l3.885,6.089
			c0,0-0.04-1.023-0.04-1.981v-4.107h2.074V62.223z"/>
		<path fill="#FFFFFF" d="M52.252,61.632c-0.643,0.512-1.482,0.748-2.454,0.748c-1.312,0-2.479-0.682-3.215-1.364l1.05-1.549
			c0.656,0.683,1.667,1.142,2.362,1.142c0.683,0,1.207-0.328,1.207-0.932c0-0.616-0.669-0.853-1.062-0.997
			c-0.395-0.145-1.076-0.381-1.378-0.512c-0.224-0.105-0.683-0.275-1.076-0.656c-0.394-0.367-0.709-0.893-0.709-1.745
			c0-0.866,0.42-1.549,0.945-1.981c0.512-0.434,1.338-0.722,2.388-0.722s2.257,0.498,2.874,1.115l-0.905,1.482
			c-0.525-0.524-1.339-0.918-2.021-0.918c-0.683,0-1.182,0.262-1.182,0.813c0,0.551,0.512,0.761,0.919,0.918
			c0.394,0.158,1.062,0.394,1.352,0.512c0.249,0.093,0.853,0.328,1.26,0.735c0.38,0.381,0.708,0.932,0.708,1.745
			C53.314,60.333,52.908,61.12,52.252,61.632z"/>
		<path fill="#FFFFFF" d="M63.314,61.146c-0.46,0.473-1.418,1.233-3.268,1.233c-2.664,0-4.751-1.758-4.751-4.672
			c0-2.926,2.113-4.671,4.751-4.671c1.863,0,2.873,0.774,3.109,1.023L62.5,55.819c-0.17-0.224-1.142-0.945-2.335-0.945
			c-1.536,0-2.717,1.023-2.717,2.795s1.233,2.782,2.717,2.782c1.128,0,1.941-0.446,2.44-0.958L63.314,61.146z"/>
		<path fill="#FFFFFF" d="M67.723,62.223h-2.125v-9.055h2.125V62.223z"/>
		<path fill="#FFFFFF" d="M76.672,62.223h-5.983v-9.055h5.865v1.693h-3.753v1.85h3.543v1.694h-3.543v2.099h3.871V62.223z"/>
		<path fill="#FFFFFF" d="M87.485,62.223h-2.179l-3.977-6.142c0,0,0.04,1.09,0.04,2.047v4.095h-2.073v-9.055h2.27l3.885,6.089
			c0,0-0.04-1.023-0.04-1.981v-4.107h2.074V62.223z"/>
		<path fill="#FFFFFF" d="M97.746,61.146c-0.46,0.473-1.418,1.233-3.268,1.233c-2.664,0-4.751-1.758-4.751-4.672
			c0-2.926,2.113-4.671,4.751-4.671c1.863,0,2.873,0.774,3.109,1.023l-0.656,1.759c-0.17-0.224-1.142-0.945-2.335-0.945
			c-1.536,0-2.717,1.023-2.717,2.795s1.233,2.782,2.717,2.782c1.128,0,1.941-0.446,2.44-0.958L97.746,61.146z"/>
		<path fill="#FFFFFF" d="M106.013,62.223h-5.983v-9.055h5.865v1.693h-3.753v1.85h3.543v1.694h-3.543v2.099h3.871V62.223z"/>
		<path fill="#FFFFFF" d="M118.846,61.042c-0.656,0.604-1.811,1.181-3.386,1.181h-2.729v-9.055h2.729
			c1.575,0,2.729,0.577,3.386,1.181c0.656,0.604,1.404,1.654,1.404,3.347S119.502,60.438,118.846,61.042z M117.875,55.097
			c-0.499-0.472-1.312-0.84-2.415-0.84h-1.456v6.863h1.456c1.103,0,1.916-0.367,2.415-0.84c0.498-0.473,1.076-1.272,1.076-2.585
			S118.373,55.569,117.875,55.097z"/>
		<path fill="#FFFFFF" d="M130.038,62.223h-1.417l-0.932-2.362h-3.885l-0.932,2.362h-1.339l3.688-9.081h1.116L130.038,62.223z
			 M127.335,58.798l-1.588-4.068l-1.588,4.068H127.335z"/>
		<path fill="#FFFFFF" d="M136.652,54.231h-2.546v7.991h-1.273v-7.991h-2.559v-1.063h6.378V54.231z"/>
		<path fill="#FFFFFF" d="M145.404,62.223h-1.417l-0.932-2.362h-3.885l-0.932,2.362H136.9l3.688-9.081h1.116L145.404,62.223z
			 M142.701,58.798l-1.588-4.068l-1.588,4.068H142.701z"/>
		<path fill="#FFFFFF" d="M159.077,61.042c-0.564,0.63-1.588,1.338-3.307,1.338c-2.638,0-4.633-1.85-4.633-4.672
			c0-2.821,2.034-4.671,4.633-4.671c1.692,0,2.716,0.708,3.215,1.194l-0.538,1.023c-0.354-0.446-1.365-1.103-2.625-1.103
			c-1.955,0-3.372,1.404-3.372,3.53c0,2.125,1.431,3.529,3.372,3.529c1.194,0,2.113-0.459,2.703-1.102L159.077,61.042z"/>
		<path fill="#FFFFFF" d="M166.149,62.223h-4.462v-9.055h1.273v7.966h3.188V62.223z"/>
		<path fill="#FFFFFF" d="M171.963,62.38c-2.546,0-4.672-1.771-4.672-4.672c0-2.899,2.126-4.671,4.672-4.671
			s4.672,1.771,4.672,4.671C176.635,60.608,174.509,62.38,171.963,62.38z M171.963,54.14c-1.851,0-3.373,1.325-3.373,3.543
			c0,2.204,1.536,3.543,3.373,3.543c1.851,0,3.372-1.339,3.372-3.543C175.335,55.465,173.813,54.14,171.963,54.14z"/>
		<path fill="#FFFFFF" d="M186.252,58.522c0,1.128-0.105,2.021-0.722,2.756c-0.617,0.708-1.522,1.102-2.717,1.102
			c-1.207,0-2.112-0.394-2.716-1.102c-0.63-0.735-0.735-1.628-0.735-2.756v-5.354h1.286v5.237c0,0.76,0.013,1.495,0.42,2.033
			c0.367,0.498,0.958,0.801,1.745,0.801s1.365-0.303,1.745-0.801c0.407-0.538,0.42-1.286,0.42-2.033v-5.237h1.273V58.522z"/>
		<path fill="#FFFFFF" d="M195.607,61.042c-0.656,0.604-1.811,1.181-3.386,1.181h-2.729v-9.055h2.729
			c1.575,0,2.729,0.577,3.386,1.181c0.656,0.604,1.404,1.654,1.404,3.347S196.264,60.438,195.607,61.042z M194.637,55.097
			c-0.499-0.472-1.312-0.84-2.415-0.84h-1.456v6.863h1.456c1.103,0,1.916-0.367,2.415-0.84c0.498-0.473,1.076-1.272,1.076-2.585
			S195.135,55.569,194.637,55.097z"/>
	</g>
</g>
</svg>
